<svg data-name="Livello 1" height="48" id="Livello_1" viewBox="0 0 48 48" width="48" xmlns="http://www.w3.org/2000/svg"><defs><style>.cls-1{fill:#e4c437;}.cls-2{fill:#b33939;}.cls-3{fill:#f2dc36;}.cls-4{fill:#5eb254;}.cls-5{fill:#db4342;}.cls-6{fill:#40a5a8;}.cls-7{fill:#f2f2f3;}</style></defs><title/><g id="Chrome"><path class="cls-1" d="M38.482,11.489A24,24,0,0,1,21,47.807,24.342,24.342,0,0,0,24,48,24,24,0,0,0,48,24a22.688,22.688,0,0,0-2.639-10.937c-.249-.454-.581-1.062-.894-1.574Z"/><path class="cls-2" d="M39.352,13.073h6.014A24.009,24.009,0,0,0,24,0a24.342,24.342,0,0,0-3,.193A24.024,24.024,0,0,1,39.352,13.073Z"/><path class="cls-3" d="M41.372,13.073h0l-.773-.957H21.963v1.957c4.792.112,8.662,4.518,8.662,9.927a10.46,10.46,0,0,1-3.05,7.489l-7.825,15.7,1.065.575c.384.051.762.119,1.152.152l.033,0A24,24,0,0,0,41.372,13.073Z"/><path class="cls-4" d="M29.144,29.494a8.645,8.645,0,0,1-7.367,4.444c-3.991,0-7.369-2.985-8.468-7.071l-.275.023-.688-1.109L9.02,19.733l-4.449-8.6-1.056.359a23.984,23.984,0,0,0,17.3,36.274l9.479-18.269h-1.15Z"/><path class="cls-5" d="M12.93,24c0-5.479,3.969-9.937,8.847-9.937a7.938,7.938,0,0,1,1.47.148l-1.284-1.138H41.372A24.012,24.012,0,0,0,22.011.091a23.988,23.988,0,0,0-18.5,11.4h0l9.746,18.005.006-.01.749-.583.005-.128A10.848,10.848,0,0,1,12.93,24Z"/><path class="cls-6" d="M21.777,33.938c-4.878,0-8.847-4.459-8.847-9.938s3.969-9.937,8.847-9.937S30.625,18.521,30.625,24,26.656,33.938,21.777,33.938Z"/><path class="cls-7" d="M21.777,13.063c-5.429,0-9.847,4.906-9.847,10.937s4.418,10.938,9.847,10.938S31.625,30.031,31.625,24,27.208,13.063,21.777,13.063Zm0,19.875c-4.327,0-7.847-4.01-7.847-8.938s3.52-8.937,7.847-8.937S29.625,19.072,29.625,24,26.1,32.938,21.777,32.938Z"/></g></svg>