<svg height="512" viewBox="0 0 64 64" width="512" xmlns="http://www.w3.org/2000/svg"><g id="Fill_Outline" data-name="Fill Outline"><rect fill="#57b7eb" height="54" rx="4" width="34" x="8" y="7"/><path d="m33 49a18 18 0 0 1 -18-18v-24h-3a4 4 0 0 0 -4 4v46a4 4 0 0 0 4 4h26a4 4 0 0 0 4-4v-8z" fill="#4891d3"/><rect fill="#f9e109" height="4" rx="2" width="12" x="19" y="53"/><path d="m30 55h-8a2 2 0 0 1 -2-1.74 2 2 0 0 0 1 3.74h8a2 2 0 0 0 2-2 2.06 2.06 0 0 0 0-.26 2 2 0 0 1 -1 .26z" fill="#fcbc04"/><path d="m49 12h-12a2 2 0 0 0 -2 2v5a2 2 0 0 0 2 2v5l4.86-5h7.14a2 2 0 0 0 2-2v-5a2 2 0 0 0 -2-2z" fill="#a1d51c"/><circle cx="10" cy="47" fill="#c4f236" r="7"/><path d="m38 12h11a2 2 0 0 1 2 2v4a0 0 0 0 1 0 0h-9a4 4 0 0 1 -4-4v-2a0 0 0 0 1 0 0z" fill="#c4f236"/><rect fill="#a1d51c" height="18" rx="2" width="18" x="13" y="19"/><path d="m27 26h-3v-3h-4v3h-3v4h3v3h4v-3h3z" fill="#f9e109"/><path d="m28 34a12 12 0 0 1 -12-12v-3h-1a2 2 0 0 0 -2 2v14a2 2 0 0 0 2 2h14a2 2 0 0 0 2-2v-1z" fill="#7ab92d"/><path d="m20 30.93v2.07h3.21a12.17 12.17 0 0 1 -3.21-2.07z" fill="#fcbc04"/><path d="m17 26.79v3.21h2.07a12.17 12.17 0 0 1 -2.07-3.21z" fill="#fcbc04"/><path d="m13 50a7 7 0 0 1 -7-7 7.12 7.12 0 0 1 .27-1.92 7 7 0 1 0 10.46 7.84 7 7 0 0 1 -3.73 1.08z" fill="#a1d51c"/><path d="m8 50v-6l5 2.93z" fill="#f9e109"/><path d="m8 47.89v2.11l1.52-.93a7 7 0 0 1 -1.52-1.18z" fill="#fcbc04"/><path d="m53 41.9-1.4-4.24-5.6-5.66-1.42-1.41a2 2 0 0 0 -2.83 2.82l1.42 1.42-2.88-2.83a2 2 0 0 0 -2.83 0 2 2 0 0 0 0 2.83 2 2 0 0 0 -2.83 2.83l-4.24-4.25a2 2 0 0 0 -2.83 2.83l7.69 7.69h-4.25a2 2 0 0 0 0 4h8.25l1 1 4.24 1.41 8.81 10.66h7.7v-12.51z" fill="#f9e109"/><path d="m35.54 34.32a1.93 1.93 0 0 0 -.91.51 2 2 0 0 0 0 2.83l2.83 2.83a2 2 0 0 0 0-2.83l-1.41-1.42a2 2 0 0 1 -.51-1.92z" fill="#fcbc04"/><path d="m38.37 31.49a2 2 0 0 0 -.91.51 2 2 0 0 0 0 2.83l2.83 2.83a2 2 0 0 0 0-2.83l-1.41-1.42a2 2 0 0 1 -.51-1.92z" fill="#fcbc04"/><path d="m43.12 34.83a2 2 0 0 0 0-2.83 2 2 0 0 1 -.51-1.93 2 2 0 0 0 -.91.52 2 2 0 0 0 0 2.82z" fill="#fcbc04"/><path d="m49.85 50.76a8.76 8.76 0 0 0 -4.73-3.34l-.73-.21a17.06 17.06 0 0 1 -7.39-4.34l-8-8a2 2 0 0 1 -.51-1.93 2.12 2.12 0 0 0 -.91.51 2 2 0 0 0 0 2.83l7.69 7.69h-4.27a2 2 0 0 0 0 4h8.25l1 1 4.24 1.41 8.81 10.62h7.7v-7.51a8.8 8.8 0 0 1 -11.15-2.73z" fill="#fcbc04"/><g fill="#1f2d51"><path d="m18 55a3 3 0 0 0 3 3h8a3 3 0 0 0 0-6h-8a3 3 0 0 0 -3 3zm12 0a1 1 0 0 1 -1 1h-8a1 1 0 0 1 0-2h8a1 1 0 0 1 1 1z"/><circle cx="13" cy="12" r="1"/><circle cx="17" cy="12" r="1"/><circle cx="21" cy="12" r="1"/><path d="m8 37.19a1 1 0 0 0 1-1v-25.19a3 3 0 0 1 3-3h26a3 3 0 0 1 2 .75 1 1 0 1 0 1.32-1.5 5 5 0 0 0 -3.32-1.25h-26a5 5 0 0 0 -5 5v25.19a1 1 0 0 0 1 1z"/><path d="m42 52.54a1 1 0 0 0 -1 1v3.46a3 3 0 0 1 -3 3h-26a3 3 0 0 1 -2.94-2.38 1 1 0 1 0 -1.95.38 5 5 0 0 0 4.89 4h26a5 5 0 0 0 5-5v-3.46a1 1 0 0 0 -1-1z"/><circle cx="42" cy="26" r="1"/><path d="m61.64 47.72-7.76-6.41-1.33-4a1 1 0 0 0 -.24-.39l-7.07-7.07a3 3 0 0 0 -4.24 0 3.09 3.09 0 0 0 -.64.93 3 3 0 0 0 -4.48 2.44 2.93 2.93 0 0 0 -2 .87 3.15 3.15 0 0 0 -.59.83l-2.19-2.21a3 3 0 1 0 -4.24 4.29l6 6h-1.86a3 3 0 0 0 0 6h7.84l.74.75a1.06 1.06 0 0 0 .39.24l4 1.32 8.58 10.4a1 1 0 0 0 .77.36 1 1 0 0 0 .64-.23 1 1 0 0 0 .13-1.41l-8.79-10.68a.94.94 0 0 0 -.45-.31l-4-1.34-.85-.88a1 1 0 0 0 -.71-.29h-8.29a1 1 0 0 1 0-2h4.25a1 1 0 0 0 .92-.62 1 1 0 0 0 -.17-1.09l-7.69-7.68a1 1 0 0 1 0-1.42 1 1 0 0 1 1.41 0l4.25 4.24 2.82 2.82a1 1 0 0 0 .71.3 1 1 0 0 0 .71-1.71l-2.87-2.77a1 1 0 0 1 -.29-.71 1 1 0 0 1 .29-.7 1 1 0 0 1 1.41 0l2.82 2.82a1 1 0 0 0 .71.3 1 1 0 0 0 .72-1.71l-2.83-2.83a1 1 0 0 1 1.41-1.41l1.42 1.36 1.41 1.42a1 1 0 0 0 1.42 0 1 1 0 0 0 0-1.42l-1.42-1.41a1 1 0 0 1 0-1.42 1 1 0 0 1 1.42 0l6.9 6.91 1.34 4a1.07 1.07 0 0 0 .31.45l8 6.59a1 1 0 0 0 1.41-.13 1 1 0 0 0 -.15-1.39z"/><path d="m28 30v-4a1 1 0 0 0 -1-1h-2v-2a1 1 0 0 0 -1-1h-4a1 1 0 0 0 -1 1v2h-2a1 1 0 0 0 -1 1v4a1 1 0 0 0 1 1h2v2a1 1 0 0 0 1 1h4a1 1 0 0 0 1-1v-2h2a1 1 0 0 0 1-1zm-2-1h-2a1 1 0 0 0 -1 1v2h-2v-2a1 1 0 0 0 -1-1h-2v-2h2a1 1 0 0 0 1-1v-2h2v2a1 1 0 0 0 1 1h2z"/><path d="m31 30a1 1 0 0 0 1-1v-8a3 3 0 0 0 -3-3h-14a3 3 0 0 0 -3 3v14a3 3 0 0 0 3 3h8.32a1 1 0 0 0 0-2h-8.32a1 1 0 0 1 -1-1v-14a1 1 0 0 1 1-1h14a1 1 0 0 1 1 1v8a1 1 0 0 0 1 1z"/><path d="m34 14v5a3 3 0 0 0 2 2.83v4.17a1 1 0 0 0 1 1 1 1 0 0 0 .72-.3l4.56-4.7h6.72a3 3 0 0 0 3-3v-5a3 3 0 0 0 -3-3h-12a3 3 0 0 0 -3 3zm16 0v5a1 1 0 0 1 -1 1h-7.14a1 1 0 0 0 -.72.3l-3.14 3.24v-2.54a1 1 0 0 0 -1-1 1 1 0 0 1 -1-1v-5a1 1 0 0 1 1-1h12a1 1 0 0 1 1 1z"/><path d="m39 18h4a1 1 0 0 0 0-2h-4a1 1 0 0 0 0 2z"/><circle cx="47" cy="17" r="1"/><path d="m14 46.92a1 1 0 0 0 -.49-.85l-5-2.93a1 1 0 0 0 -1.51.86v6a1 1 0 0 0 .51.87 1 1 0 0 0 .49.13 1 1 0 0 0 .52-.15l5-3.07a1 1 0 0 0 .48-.86zm-5 1.29v-2.46l2.06 1.25z"/><path d="m18 47a8 8 0 1 0 -8 8 8 8 0 0 0 8-8zm-14 0a6 6 0 1 1 6 6 6 6 0 0 1 -6-6z"/></g></g></svg>