<svg height="512" viewBox="0 0 64 64" width="512" xmlns="http://www.w3.org/2000/svg"><path d="m18 55a3 3 0 0 0 3 3h8a3 3 0 0 0 0-6h-8a3 3 0 0 0 -3 3zm12 0a1 1 0 0 1 -1 1h-8a1 1 0 0 1 0-2h8a1 1 0 0 1 1 1z"/><circle cx="13" cy="12" r="1"/><circle cx="17" cy="12" r="1"/><circle cx="21" cy="12" r="1"/><path d="m8 37.19a1 1 0 0 0 1-1v-25.19a3 3 0 0 1 3-3h26a3 3 0 0 1 2 .75 1 1 0 1 0 1.32-1.5 5 5 0 0 0 -3.32-1.25h-26a5 5 0 0 0 -5 5v25.19a1 1 0 0 0 1 1z"/><path d="m42 52.54a1 1 0 0 0 -1 1v3.46a3 3 0 0 1 -3 3h-26a3 3 0 0 1 -2.94-2.38 1 1 0 1 0 -1.95.38 5 5 0 0 0 4.89 4h26a5 5 0 0 0 5-5v-3.46a1 1 0 0 0 -1-1z"/><circle cx="43" cy="26" r="1"/><path d="m61.64 47.72-7.76-6.41-1.33-4a1 1 0 0 0 -.24-.39l-7.07-7.07a3 3 0 0 0 -4.24 0 3.09 3.09 0 0 0 -.64.93 3 3 0 0 0 -4.48 2.44 2.93 2.93 0 0 0 -2 .87 3.15 3.15 0 0 0 -.59.83l-2.19-2.21a3 3 0 1 0 -4.24 4.29l6 6h-1.86a3 3 0 0 0 0 6h7.84l.74.75a1.06 1.06 0 0 0 .39.24l4 1.32 8.58 10.4a1 1 0 0 0 .77.36 1 1 0 0 0 .64-.23 1 1 0 0 0 .13-1.41l-8.79-10.68a.94.94 0 0 0 -.45-.31l-4-1.34-.85-.88a1 1 0 0 0 -.71-.29h-8.29a1 1 0 0 1 0-2h4.25a1 1 0 0 0 .92-.62 1 1 0 0 0 -.17-1.09l-7.69-7.68a1 1 0 0 1 0-1.42 1 1 0 0 1 1.41 0l4.25 4.24 2.82 2.82a1 1 0 0 0 .71.3 1 1 0 0 0 .71-1.71l-2.87-2.77a1 1 0 0 1 -.29-.71 1 1 0 0 1 .29-.7 1 1 0 0 1 1.41 0l2.82 2.82a1 1 0 0 0 .71.3 1 1 0 0 0 .72-1.71l-2.83-2.83a1 1 0 0 1 1.41-1.41l1.42 1.36 1.41 1.42a1 1 0 0 0 1.42 0 1 1 0 0 0 0-1.42l-1.42-1.41a1 1 0 0 1 0-1.42 1 1 0 0 1 1.42 0l6.9 6.91 1.34 4a1.07 1.07 0 0 0 .31.45l8 6.59a1 1 0 0 0 1.41-.13 1 1 0 0 0 -.15-1.39z"/><path d="m28 30v-4a1 1 0 0 0 -1-1h-2v-2a1 1 0 0 0 -1-1h-4a1 1 0 0 0 -1 1v2h-2a1 1 0 0 0 -1 1v4a1 1 0 0 0 1 1h2v2a1 1 0 0 0 1 1h4a1 1 0 0 0 1-1v-2h2a1 1 0 0 0 1-1zm-2-1h-2a1 1 0 0 0 -1 1v2h-2v-2a1 1 0 0 0 -1-1h-2v-2h2a1 1 0 0 0 1-1v-2h2v2a1 1 0 0 0 1 1h2z"/><path d="m31 30a1 1 0 0 0 1-1v-8a3 3 0 0 0 -3-3h-14a3 3 0 0 0 -3 3v14a3 3 0 0 0 3 3h8.32a1 1 0 0 0 0-2h-8.32a1 1 0 0 1 -1-1v-14a1 1 0 0 1 1-1h14a1 1 0 0 1 1 1v8a1 1 0 0 0 1 1z"/><path d="m34 14v5a3 3 0 0 0 2 2.83v4.17a1 1 0 0 0 1 1 1 1 0 0 0 .72-.3l4.56-4.7h6.72a3 3 0 0 0 3-3v-5a3 3 0 0 0 -3-3h-12a3 3 0 0 0 -3 3zm16 0v5a1 1 0 0 1 -1 1h-7.14a1 1 0 0 0 -.72.3l-3.14 3.24v-2.54a1 1 0 0 0 -1-1 1 1 0 0 1 -1-1v-5a1 1 0 0 1 1-1h12a1 1 0 0 1 1 1z"/><path d="m39 18h4a1 1 0 0 0 0-2h-4a1 1 0 0 0 0 2z"/><circle cx="47" cy="17" r="1"/><path d="m14 46.92a1 1 0 0 0 -.49-.85l-5-2.93a1 1 0 0 0 -1.51.86v6a1 1 0 0 0 .51.87 1 1 0 0 0 .49.13 1 1 0 0 0 .52-.15l5-3.07a1 1 0 0 0 .48-.86zm-5 1.29v-2.46l2.06 1.25z"/><path d="m18 47a8 8 0 1 0 -8 8 8 8 0 0 0 8-8zm-14 0a6 6 0 1 1 6 6 6 6 0 0 1 -6-6z"/></svg>