<?xml version="1.0" encoding="iso-8859-1"?>
<!-- Generator: Adobe Illustrator 19.0.0, SVG Export Plug-In . SVG Version: 6.00 Build 0)  -->
<svg version="1.1" id="Layer_1" xmlns="http://www.w3.org/2000/svg" xmlns:xlink="http://www.w3.org/1999/xlink" x="0px" y="0px"
	 viewBox="0 0 496 496" style="enable-background:new 0 0 496 496;" xml:space="preserve">
<g>
	<g>
		<g>
			<path d="M451.052,140.92l-14.768,6.16L448.34,176h-52.672v16h59.336l20,48l-20,48H332.98c-21.408-19.792-49.92-32-81.312-32
				s-59.904,12.208-81.312,32H35.668v16h120.224c-15.136,20.08-24.224,44.968-24.224,72c0,66.168,53.832,120,120,120
				s120-53.832,120-120c0-27.032-9.088-51.92-24.224-72H448.34l-12.048,28.92l14.768,6.16L492.332,240L451.052,140.92z M355.668,376
				c0,57.344-46.656,104-104,104s-104-46.656-104-104s46.656-104,104-104S355.668,318.656,355.668,376z"/>
			<path d="M67.748,252.72l140.968-76.36l17.728,17.728l-32.88,4.112c-12.48,1.56-21.896,12.224-21.896,24.8
				c0,13.784,11.216,25,25,25c4.936,0,9.928-0.272,14.84-0.824l70.568-7.84l10.24-40.976l-33.76-47.264l43.328-6.192L317.636,200
				h46.032c13.232,0,24-10.768,24-24s-10.768-24-24-24h-9.448l-7.112-35.56l-31.352-37.616C307.916,69.4,296.388,64,284.132,64
				c-1.912,0-3.816,0.168-5.704,0.432l-33.632-16.816l-68.56,13.712c-11.92,2.392-20.568,12.936-20.568,25.088
				c0,14.104,11.48,25.584,25.584,25.584h4.4l-2.264,1.232L40.316,203.6c-7.92,5-12.648,13.584-12.648,22.952v2.296
				C27.668,243.824,39.844,256,54.82,256C59.316,256,63.788,254.864,67.748,252.72z M275.004,201.648l-5.752,23.016l-59.504,6.608
				c-4.328,0.488-8.728,0.728-13.08,0.728c-4.96,0-9-4.04-9-9c0-4.52,3.392-8.36,7.88-8.92l65.336-8.168l-37.496-37.496
				l20.104-10.888L275.004,201.648z M181.252,96c-5.288,0-9.584-4.296-9.584-9.584c0-4.544,3.24-8.504,7.704-9.4l63.168-12.632
				l15.856,7.928l-32.288,17.616L187.78,95.88c-0.496,0.08-0.976,0.12-1.472,0.12H181.252z M43.668,228.848v-2.296
				c0-3.84,1.944-7.368,5.192-9.424l142.632-90.112l80.576-43.944c3.688-2.008,7.856-3.072,12.064-3.072
				c7.504,0,14.544,3.304,19.336,9.064l28.76,34.504L341.116,168h22.552c4.416,0,8,3.584,8,8s-3.584,8-8,8H329.7l-16.256-56.904
				l-64.32,9.184l-189,102.376C58.5,239.528,56.66,240,54.82,240C48.668,240,43.668,235,43.668,228.848z"/>
			<path d="M355.668,96c26.472,0,48-21.528,48-48s-21.528-48-48-48s-48,21.528-48,48S329.196,96,355.668,96z M355.668,16
				c17.648,0,32,14.352,32,32s-14.352,32-32,32s-32-14.352-32-32S338.02,16,355.668,16z"/>
			<rect x="3.668" y="288" width="16" height="16"/>
			<rect x="3.668" y="120" width="16" height="16"/>
			<rect x="35.668" y="120" width="80" height="16"/>
			<rect x="19.668" y="88" width="16" height="16"/>
			<rect x="51.668" y="88" width="88" height="16"/>
			<rect x="35.668" y="56" width="16" height="16"/>
			<rect x="67.668" y="56" width="80" height="16"/>
			<path d="M251.668,288c-48.52,0-88,39.48-88,88v8h8h8h8v-16h-7.528c0.816-7.336,2.744-14.328,5.592-20.832l6.512,3.76l8-13.856
				l-6.448-3.728c4.288-5.808,9.416-10.928,15.216-15.216l3.728,6.448l13.856-8l-3.76-6.512c6.504-2.856,13.496-4.776,20.832-5.592
				V312h16v-7.528c7.336,0.816,14.328,2.736,20.832,5.592l-3.76,6.512l13.856,8l3.728-6.448c5.808,4.288,10.928,9.416,15.216,15.216
				l-6.448,3.728l8,13.856l6.512-3.76c2.856,6.504,4.776,13.496,5.592,20.832h-7.528v16h8h8h8v-8
				C339.668,327.48,300.188,288,251.668,288z"/>
			
				<rect x="263.654" y="353.583" transform="matrix(-0.8137 -0.5812 0.5812 -0.8137 267.1917 861.6022)" width="15.991" height="68.813"/>
			<rect x="243.668" y="440" width="16" height="16"/>
			<rect x="275.668" y="440" width="16" height="16"/>
			<rect x="211.668" y="440" width="16" height="16"/>
		</g>
	</g>
</g>
<g>
</g>
<g>
</g>
<g>
</g>
<g>
</g>
<g>
</g>
<g>
</g>
<g>
</g>
<g>
</g>
<g>
</g>
<g>
</g>
<g>
</g>
<g>
</g>
<g>
</g>
<g>
</g>
<g>
</g>
</svg>
